<svg xmlns="http://www.w3.org/2000/svg" version="1.1" xmlns:xlink="http://www.w3.org/1999/xlink" xmlns:svgjs="http://svgjs.com/svgjs" width="1440" height="600" preserveAspectRatio="none" viewBox="0 0 1440 600"><g mask="url(&quot;#SvgjsMask1101&quot;)" fill="none"><rect width="1440" height="600" x="0" y="0" fill="url(#SvgjsLinearGradient1102)"></rect><path d="M296.34,380.127C316.064,380.132,331.634,366.398,342.609,350.009C355.431,330.863,369.853,307.46,358.39,287.471C346.9,267.435,319.401,268.036,296.34,269.325C276.131,270.455,255.309,276.234,245.244,293.795C235.224,311.277,239.848,332.647,250.111,349.987C260.153,366.954,276.624,380.122,296.34,380.127" fill="rgba(28, 83, 142, 0.4)" class="triangle-float3"></path><path d="M1032.562,646.844C1092.826,649.171,1152.033,617.164,1179.279,563.36C1204.527,513.5,1180.418,457.82,1152.921,409.164C1124.797,359.399,1089.598,307.545,1032.562,303.746C970.155,299.59,909.467,335.445,880.815,391.041C854.075,442.928,874.461,502.535,904.243,552.738C933.249,601.633,975.753,644.65,1032.562,646.844" fill="rgba(28, 83, 142, 0.4)" class="triangle-float2"></path><path d="M428.3455574861106 179.84003433151122L317.61695462986887 316.5784711457831 565.0839943003825 290.5686371877529z" fill="rgba(28, 83, 142, 0.4)" class="triangle-float2"></path><path d="M1165.95 15.8 a150.18 150.18 0 1 0 300.36 0 a150.18 150.18 0 1 0 -300.36 0z" fill="rgba(28, 83, 142, 0.4)" class="triangle-float1"></path><path d="M162.902,244.786C196.505,242.289,221.373,217.844,239.077,189.173C258.042,158.46,276.699,121.171,258.469,90.017C240.34,59.034,198.799,59.096,162.902,58.99C126.733,58.884,86.882,59.672,66.356,89.452C43.499,122.615,42.955,167.96,64.217,202.168C84.49,234.785,124.604,247.632,162.902,244.786" fill="rgba(28, 83, 142, 0.4)" class="triangle-float3"></path><path d="M540.1828937299506 433.7587468760202L547.8802423092274 521.7398437297385 676.0032133001663 466.2032724339643z" fill="rgba(28, 83, 142, 0.4)" class="triangle-float2"></path><path d="M887.137,678.203C948.732,676.514,990.21,621.884,1019.566,567.708C1047.185,516.737,1064.058,456.043,1034.561,406.135C1005.454,356.888,944.341,344.165,887.137,343.644C828.738,343.112,766.068,353.962,734.988,403.406C702.276,455.447,711.725,521.559,741.499,575.334C772.355,631.064,823.459,679.949,887.137,678.203" fill="rgba(28, 83, 142, 0.4)" class="triangle-float2"></path><path d="M538.8473046902743 420.0477262943784L638.4502992545026 367.20957317603745 555.789684556617 313.52914233285674z" fill="rgba(28, 83, 142, 0.4)" class="triangle-float3"></path><path d="M32.87555434432913 146.49170228840023L104.18804355063602 64.61379488195985 11.346793416622035 44.87977797232739z" fill="rgba(28, 83, 142, 0.4)" class="triangle-float1"></path><path d="M1240,196.854C1285.305,196.689,1332.993,180.006,1353.036,139.376C1371.625,101.693,1347.238,60.674,1324.658,25.237C1304.369,-6.605,1277.625,-34.872,1240,-38.025C1196.34,-41.684,1150.268,-28.226,1126.591,8.638C1101.189,48.189,1101.269,99.942,1125.529,140.204C1149.079,179.287,1194.37,197.02,1240,196.854" fill="rgba(28, 83, 142, 0.4)" class="triangle-float3"></path></g><defs><mask id="SvgjsMask1101"><rect width="1440" height="600" fill="#ffffff"></rect></mask><linearGradient x1="14.58%" y1="-35%" x2="85.42%" y2="135%" gradientUnits="userSpaceOnUse" id="SvgjsLinearGradient1102"><stop stop-color="#0e2a47" offset="0"></stop><stop stop-color="#00459e" offset="1"></stop></linearGradient><style>
            @keyframes float1 {
                0%{transform: translate(0, 0)}
                50%{transform: translate(-10px, 0)}
                100%{transform: translate(0, 0)}
            }

            .triangle-float1 {
                animation: float1 5s infinite;
            }

            @keyframes float2 {
                0%{transform: translate(0, 0)}
                50%{transform: translate(-5px, -5px)}
                100%{transform: translate(0, 0)}
            }

            .triangle-float2 {
                animation: float2 4s infinite;
            }

            @keyframes float3 {
                0%{transform: translate(0, 0)}
                50%{transform: translate(0, -10px)}
                100%{transform: translate(0, 0)}
            }

            .triangle-float3 {
                animation: float3 6s infinite;
            }
        </style></defs></svg>